<?xml version="1.0" standalone="no"?>
<!DOCTYPE svg PUBLIC "-//W3C//DTD SVG 20010904//EN"
 "http://www.w3.org/TR/2001/REC-SVG-20010904/DTD/svg10.dtd">
<svg version="1.0" xmlns="http://www.w3.org/2000/svg"
 width="512.000000pt" height="512.000000pt" viewBox="0 0 512.000000 512.000000"
 preserveAspectRatio="xMidYMid meet">
<metadata>
Created by potrace 1.16, written by Peter Selinger 2001-2019
</metadata>
<g transform="translate(0.000000,512.000000) scale(0.100000,-0.100000)"
fill="#000000" stroke="none">
<path d="M2275 4604 c-379 -58 -739 -211 -1030 -439 -80 -62 -135 -115 -121
-115 4 0 40 27 79 61 178 150 473 313 706 389 163 53 347 91 447 93 64 2 80 5
72 15 -13 15 -36 14 -153 -4z"/>
<path d="M2464 4579 c11 -6 38 -9 64 -6 71 8 285 -10 406 -33 188 -37 362
-101 547 -201 50 -27 95 -49 101 -49 14 0 193 -128 269 -193 34 -29 71 -59 83
-67 l21 -14 -20 23 c-32 37 -213 180 -302 238 -193 126 -480 242 -703 284
-134 25 -501 39 -466 18z"/>
<path d="M2430 4500 c-420 -53 -791 -205 -1075 -442 -102 -84 -230 -221 -288
-306 l-39 -57 39 45 c241 282 389 404 638 528 274 136 508 197 800 209 306 12
566 -41 832 -168 57 -27 105 -49 108 -49 3 0 5 7 5 15 0 40 -352 172 -546 205
-137 24 -365 33 -474 20z"/>
<path d="M2392 4389 c-255 -22 -576 -128 -805 -265 -160 -96 -334 -247 -469
-404 l-55 -64 -43 19 c-50 22 -40 31 -125 -106 -120 -193 -199 -378 -238 -559
-38 -174 -41 -200 -24 -200 10 0 20 32 36 118 28 150 78 298 146 437 58 117
168 295 183 295 5 0 15 -7 22 -15 7 -8 25 -15 39 -15 22 0 39 14 80 64 133
165 369 358 546 449 l70 36 37 -72 c33 -65 35 -73 20 -84 -25 -20 -53 -15 -78
13 -18 19 -30 24 -47 18 -33 -10 -57 -34 -57 -59 0 -42 59 -72 87 -44 9 9 26
-2 68 -42 l57 -55 -84 -53 c-107 -70 -284 -248 -361 -363 l-59 -88 -218 0
c-135 0 -221 -4 -225 -10 -4 -7 70 -10 213 -10 l220 0 -28 -52 c-52 -97 -130
-328 -111 -328 4 0 18 37 30 82 12 46 45 131 73 190 l51 108 91 0 c108 0 107
18 -2 22 l-73 3 52 75 c109 158 243 287 402 386 45 28 82 57 82 65 0 13 193
97 228 98 9 1 17 6 17 11 0 13 2 13 -61 -9 -104 -36 -208 -83 -206 -93 1 -6
-3 -12 -9 -15 -12 -4 -124 93 -124 108 0 5 15 9 34 9 19 0 43 8 54 18 20 17
20 17 -19 96 -22 44 -36 83 -32 87 13 11 182 75 273 103 111 33 207 53 302 62
l78 7 3 -184 2 -184 3 189 2 189 158 -6 c86 -3 200 -13 252 -22 106 -19 278
-71 377 -116 64 -29 95 -30 73 -4 -14 17 -188 85 -291 114 -162 45 -426 67
-617 50z"/>
<path d="M3430 4212 c0 -5 37 -32 83 -60 45 -28 113 -76 150 -107 l69 -57 -64
-66 c-35 -37 -66 -68 -70 -70 -4 -2 -41 24 -84 58 -42 33 -79 58 -82 55 -3 -3
-3 -6 -1 -8 2 -2 31 -24 64 -49 99 -75 98 -64 3 -170 -45 -52 -103 -116 -126
-143 -24 -27 -54 -54 -65 -60 -26 -12 -36 -63 -15 -76 43 -28 90 11 70 57 -10
20 -7 27 24 53 19 17 33 35 32 40 -3 11 169 211 181 211 9 0 109 -105 172
-180 69 -83 141 -194 194 -299 25 -51 49 -91 52 -88 10 11 -120 246 -183 330
-36 48 -102 125 -145 172 l-80 84 42 46 c24 26 55 55 70 66 l28 19 48 -51 c82
-87 222 -280 263 -364 81 -162 172 -445 200 -620 6 -38 16 -75 21 -82 18 -21
31 -222 26 -383 -4 -111 -2 -148 5 -130 12 29 15 335 4 433 l-8 67 41 0 c37 0
41 2 41 25 0 68 -91 395 -110 395 -13 0 -14 6 20 -94 28 -83 70 -258 70 -291
0 -10 -10 -15 -33 -15 l-34 0 -12 82 c-7 45 -24 124 -37 176 -26 102 -146 404
-188 476 -37 64 -161 228 -239 318 l-68 77 26 17 c24 16 25 18 9 35 -10 11
-22 19 -28 19 -6 0 -2 -8 9 -16 20 -15 20 -15 1 -30 -11 -8 -23 -14 -27 -14
-3 0 -37 25 -75 56 -71 58 -202 150 -229 160 -8 4 -15 2 -15 -4z"/>
<path d="M2602 4188 c-18 -18 -15 -75 4 -82 41 -16 84 6 84 44 0 40 -60 66
-88 38z m56 -35 c-5 -26 -38 -29 -38 -4 0 15 6 21 21 21 14 0 19 -5 17 -17z"/>
<path d="M3176 4094 c-32 -31 -6 -71 39 -60 31 8 35 50 6 66 -25 13 -27 13
-45 -6z"/>
<path d="M3940 3859 c95 -108 179 -228 268 -386 117 -205 176 -366 209 -573
10 -61 22 -110 26 -110 18 0 -29 242 -74 380 -72 222 -264 541 -433 718 -93
97 -90 76 4 -29z"/>
<path d="M3987 3954 c-3 -6 12 -28 34 -50 23 -21 68 -74 101 -117 34 -42 63
-75 66 -72 6 5 -87 128 -150 199 -25 28 -47 45 -51 40z"/>
<path d="M2450 3885 c-8 -2 -54 -9 -102 -16 -49 -7 -88 -16 -88 -22 0 -5 15
-6 38 -2 210 40 447 32 632 -22 88 -25 222 -87 301 -138 116 -75 128 -81 88
-44 -116 107 -372 214 -571 239 -75 9 -260 12 -298 5z"/>
<path d="M950 3855 c0 -8 7 -15 15 -15 8 0 15 7 15 15 0 8 -7 15 -15 15 -8 0
-15 -7 -15 -15z"/>
<path d="M1310 3785 c-20 -21 -22 -30 -14 -52 5 -16 21 -32 36 -37 61 -22 108
62 56 98 -31 22 -51 20 -78 -9z m65 -35 c0 -18 -6 -26 -23 -28 -27 -4 -40 22
-22 44 19 22 45 13 45 -16z"/>
<path d="M2405 3779 c-102 -15 -235 -58 -342 -110 -111 -55 -153 -83 -153
-105 0 -22 25 -17 80 17 79 49 252 115 351 135 49 10 89 22 89 27 0 4 16 5 36
1 33 -6 36 -5 32 17 -4 28 -13 30 -93 18z"/>
<path d="M2570 3752 c0 -5 27 -10 61 -11 41 -1 59 1 54 8 -7 13 -115 15 -115
3z"/>
<path d="M2862 3718 c2 -5 35 -20 73 -33 83 -27 156 -59 209 -92 21 -14 36
-19 34 -12 -2 7 -36 30 -74 51 -77 42 -247 103 -242 86z"/>
<path d="M2580 3620 l0 -50 -36 0 c-52 0 -104 -53 -104 -107 0 -21 7 -49 16
-61 13 -19 14 -40 9 -122 l-7 -99 -39 -6 c-21 -4 -76 -25 -121 -47 -114 -55
-221 -162 -275 -277 -30 -64 -42 -80 -58 -78 -30 3 -47 -60 -49 -178 l-1 -100
93 -3 92 -3 0 26 c0 18 5 25 20 25 11 0 20 5 20 10 0 6 -25 10 -55 10 -52 0
-55 1 -55 25 0 24 2 25 65 25 38 0 65 4 65 10 0 7 -27 10 -72 8 l-73 -3 -3
-49 -3 -48 35 6 c29 6 36 4 36 -9 0 -11 -11 -15 -40 -15 l-40 0 0 61 c0 83 15
139 66 246 58 122 137 203 253 261 107 54 121 54 121 2 0 -40 7 -46 48 -41 7
1 12 -11 12 -32 l0 -34 58 4 c79 6 88 11 20 12 -55 1 -58 2 -58 26 0 24 2 25
70 25 l70 0 0 45 c0 52 3 53 85 25 67 -23 138 -66 179 -109 l28 -30 -20 -28
c-11 -15 -29 -37 -41 -47 -12 -11 -21 -24 -21 -30 0 -7 -19 -31 -43 -54 l-43
-42 -29 30 c-28 29 -55 39 -55 21 0 -12 71 -71 85 -71 6 0 31 20 55 45 24 25
50 45 58 45 7 0 11 4 8 8 -3 5 15 28 39 52 43 43 45 43 60 25 46 -59 95 -191
95 -257 l0 -28 -245 0 c-157 0 -245 -4 -245 -10 0 -5 11 -10 25 -10 33 0 33
-29 -1 -69 -47 -57 -137 -50 -175 13 -23 37 -24 75 -4 122 8 20 12 40 9 45 -3
5 12 17 32 25 51 21 115 13 158 -19 l33 -26 23 24 c27 28 23 42 -6 21 -16 -12
-22 -12 -48 7 -40 28 -122 34 -168 13 -49 -23 -86 -58 -68 -64 8 -3 16 0 18 7
2 6 7 11 12 11 4 0 -1 -17 -11 -37 -63 -123 53 -246 176 -187 35 16 71 75 61
100 -4 12 14 14 113 14 l118 0 -9 -56 c-10 -67 -27 -102 -75 -154 -58 -65
-153 -111 -153 -74 0 24 -33 12 -36 -13 -4 -23 10 -31 20 -14 3 5 15 7 26 4
33 -9 67 5 124 51 l54 44 37 -38 37 -38 -45 -46 c-25 -25 -71 -59 -101 -76
-74 -42 -72 -60 2 -20 33 17 91 64 133 106 60 61 71 76 59 85 -11 7 -8 8 13 5
28 -5 38 10 13 20 -12 5 -11 12 4 47 24 54 36 142 21 151 -7 5 -11 -3 -11 -22
0 -38 -28 -130 -50 -167 -10 -16 -19 -34 -19 -40 1 -19 -16 -14 -51 14 l-34
29 21 44 c12 23 25 55 28 71 5 17 14 27 26 27 10 0 19 5 19 10 0 6 -9 10 -20
10 -13 0 -20 7 -20 20 0 18 8 19 221 19 l220 1 -6 -48 c-21 -143 -109 -326
-215 -445 -42 -46 -55 -55 -66 -46 -19 15 -47 -7 -39 -31 10 -30 -133 -115
-260 -156 -38 -12 -71 -27 -73 -33 -5 -15 31 -7 129 31 192 72 368 234 464
426 34 67 85 239 85 283 0 16 8 19 48 19 78 0 182 12 182 21 0 5 -15 9 -34 9
-32 0 -34 2 -32 33 1 30 -1 32 -37 35 l-39 3 4 -38 c3 -38 3 -38 -37 -41 l-41
-3 -11 103 c-15 125 -64 281 -83 262 -7 -7 -3 -24 9 -50 27 -56 49 -146 57
-236 l7 -78 -121 0 -121 0 -6 38 c-3 20 -15 69 -26 107 -12 39 -22 83 -23 100
-2 19 -8 30 -19 30 -15 0 -57 45 -57 63 0 19 36 41 58 35 44 -11 72 45 33 67
-31 16 -39 12 -66 -30 l-26 -40 -62 50 c-109 89 -219 130 -347 130 -77 0 -103
-10 -93 -36 3 -8 0 -14 -7 -14 -10 0 -11 29 -6 128 6 110 5 130 -8 142 -27 22
-20 78 15 112 29 29 33 30 86 24 31 -4 63 -12 70 -18 18 -14 17 -79 -2 -104
-17 -22 -19 -34 -5 -34 16 0 40 57 40 95 0 40 -41 91 -65 81 -12 -4 -15 6 -15
49 0 30 -4 55 -10 55 -5 0 -10 -22 -10 -50z m24 -485 c4 -11 -2 -15 -23 -15
-16 0 -36 -3 -45 -6 -12 -4 -16 0 -16 15 0 18 6 21 39 21 25 0 41 -5 45 -15z
m-104 -60 c0 -8 -9 -15 -20 -15 -11 0 -20 7 -20 15 0 8 9 15 20 15 11 0 20 -7
20 -15z m145 0 c0 -5 -28 -11 -62 -13 -52 -2 -63 0 -63 13 0 13 11 15 63 13
34 -2 62 -7 62 -13z m435 -25 c0 -5 -7 -10 -15 -10 -8 0 -15 5 -15 10 0 6 7
10 15 10 8 0 15 -4 15 -10z m-1099 -347 c-6 -21 -11 -73 -11 -115 0 -52 -4
-78 -11 -78 -16 0 -7 187 10 218 18 34 24 20 12 -25z"/>
<path d="M2365 3624 c-139 -24 -299 -90 -393 -161 -60 -45 -26 -36 61 17 135
81 326 140 453 140 24 0 44 5 44 10 0 14 -68 11 -165 -6z"/>
<path d="M2623 3623 c3 -5 32 -11 64 -12 32 -1 90 -9 128 -18 75 -16 241 -79
251 -94 3 -5 13 -9 22 -9 46 1 -79 64 -211 106 -85 26 -266 46 -254 27z"/>
<path d="M4270 3543 c0 -6 16 -35 35 -65 46 -69 125 -224 160 -313 27 -70 45
-100 45 -77 0 24 -108 260 -154 338 -54 91 -85 134 -86 117z"/>
<path d="M3160 3532 c0 -11 90 -76 96 -69 5 4 -80 77 -90 77 -3 0 -6 -4 -6 -8z"/>
<path d="M737 3453 c-21 -40 -87 -215 -87 -229 0 -2 4 -4 9 -4 5 0 18 31 30
69 12 38 35 100 51 137 35 78 33 99 -3 27z"/>
<path d="M1704 3428 c-99 -108 -214 -283 -197 -298 4 -4 27 -14 49 -23 40 -15
42 -15 61 6 11 12 30 39 43 61 13 21 54 76 92 122 37 46 68 86 68 89 0 28
-103 -93 -176 -206 -25 -38 -46 -69 -48 -69 -2 0 -20 7 -40 15 l-35 15 30 53
c44 74 94 142 157 215 61 69 57 87 -4 20z"/>
<path d="M3326 3381 c-3 -4 8 -21 25 -37 56 -53 149 -184 189 -268 39 -80 90
-252 90 -302 0 -13 5 -24 10 -24 44 0 -48 298 -131 426 -53 81 -175 218 -183
205z"/>
<path d="M3110 3342 c0 -4 20 -24 44 -45 124 -103 239 -311 276 -500 6 -31 15
-55 20 -52 10 6 -13 122 -38 195 -46 131 -105 225 -211 333 -71 73 -91 88 -91
69z"/>
<path d="M3540 3314 c0 -16 81 -136 87 -130 6 6 -36 81 -66 116 -11 14 -20 20
-21 14z"/>
<path d="M1858 3243 c-158 -167 -258 -401 -258 -604 l0 -69 -60 0 c-33 0 -60
-4 -60 -10 0 -6 26 -10 58 -10 l59 0 16 -98 c9 -53 30 -136 46 -182 32 -88
103 -210 121 -210 6 0 -1 19 -15 43 -74 117 -124 260 -139 390 -5 47 -4 57 9
57 8 0 15 5 15 10 0 6 -7 10 -15 10 -21 0 -20 105 1 208 32 158 109 305 233
450 75 86 67 96 -11 15z"/>
<path d="M4040 3258 c-11 -12 -20 -28 -20 -36 0 -24 21 -53 45 -62 20 -7 27
-25 50 -122 15 -62 29 -136 32 -165 6 -51 23 -85 23 -45 0 43 -34 203 -66 315
-4 11 0 17 10 17 18 0 46 38 46 62 0 52 -82 76 -120 36z"/>
<path d="M636 3182 c-5 -18 -5 -36 -2 -39 7 -7 19 43 13 59 -2 7 -7 -2 -11
-20z"/>
<path d="M905 3124 c-21 -49 -62 -208 -71 -274 l-7 -50 182 0 c114 0 181 4
181 10 0 6 -63 10 -170 10 -147 0 -170 2 -170 15 0 33 33 173 57 243 27 78 25
110 -2 46z"/>
<path d="M3640 3133 c0 -5 13 -40 29 -78 16 -39 39 -117 51 -175 22 -108 30
-132 30 -88 0 75 -74 327 -101 343 -5 4 -9 2 -9 -2z"/>
<path d="M1424 3075 c-4 -9 1 -24 12 -36 16 -18 19 -18 33 -4 12 12 13 19 5
33 -15 23 -43 27 -50 7z"/>
<path d="M952 3057 c-57 -61 0 -153 78 -126 35 13 50 35 50 78 0 66 -83 96
-128 48z m96 -31 c3 -12 -5 -16 -32 -16 -44 0 -47 -15 -6 -23 34 -7 39 -23 10
-32 -52 -17 -84 57 -39 89 25 17 62 7 67 -18z"/>
<path d="M1407 2975 c-20 -35 -36 -109 -30 -139 6 -26 4 -27 -15 -17 -32 17
-54 4 -50 -33 3 -28 6 -31 37 -29 18 1 37 6 40 12 4 6 16 8 28 5 21 -6 21 -10
16 -112 -6 -111 9 -249 29 -267 8 -7 9 -3 4 15 -17 56 -18 294 -3 365 9 38 13
73 11 77 -3 4 -19 8 -35 8 -35 0 -44 17 -34 68 6 32 8 34 15 16 17 -43 75 -41
86 2 9 35 -12 55 -53 52 -23 -1 -38 -9 -46 -23z m50 -139 c1 -1 0 -12 -4 -24
-3 -15 -13 -22 -29 -22 -20 0 -24 5 -24 30 0 28 2 30 28 24 15 -4 28 -8 29 -8z"/>
<path d="M606 2774 c-10 -26 -7 -298 5 -381 16 -116 64 -294 112 -413 38 -96
46 -108 92 -141 72 -51 90 -73 154 -176 70 -114 201 -273 290 -353 l68 -60 86
80 c47 44 90 80 95 80 19 0 70 50 76 75 4 14 2 34 -4 45 -9 16 -6 24 13 43 13
12 64 61 114 109 50 48 94 84 97 81 3 -4 6 -1 6 5 0 25 -19 19 -56 -19 -21
-23 -69 -68 -107 -101 -66 -59 -68 -60 -92 -44 -34 23 -97 20 -128 -5 -15 -11
-32 -38 -38 -60 l-12 -40 -30 28 c-53 51 -171 197 -222 276 -31 48 -59 80 -73
83 -16 5 -43 -6 -92 -34 l-70 -40 -46 35 c-54 41 -82 96 -138 271 -55 170 -78
317 -80 509 -1 153 -5 185 -20 147z m509 -985 c82 -125 306 -379 334 -379 9 0
-13 -29 -49 -65 l-64 -65 -74 72 c-41 40 -109 116 -152 169 -75 94 -180 256
-180 278 0 17 92 72 115 69 12 -2 39 -33 70 -79z m423 -207 c10 -7 8 -12 -5
-24 -10 -8 -26 -18 -35 -21 -10 -4 -18 -13 -18 -22 0 -23 28 -30 49 -11 36 33
44 5 10 -38 -42 -53 -119 -21 -119 49 0 45 29 75 73 75 17 0 38 -4 45 -8z"/>
<path d="M3724 2725 c-7 -18 3 -35 21 -35 18 0 26 15 19 34 -8 20 -33 21 -40
1z"/>
<path d="M707 2702 c-40 -44 -2 -115 51 -96 15 5 31 19 37 32 9 21 14 22 164
22 85 0 152 2 150 4 -2 2 -71 6 -152 8 -134 5 -150 7 -170 27 -28 26 -58 27
-80 3z"/>
<path d="M1365 2570 c2 -74 9 -157 16 -185 17 -70 24 -37 9 43 -7 36 -16 113
-21 171 -7 105 -7 105 -4 -29z"/>
<path d="M2494 2688 c-5 -8 2 -9 24 -5 34 7 82 -6 94 -26 5 -8 8 -6 8 5 0 10
-9 22 -19 28 -26 14 -98 13 -107 -2z"/>
<path d="M3636 2593 c-14 -181 -51 -313 -131 -453 -50 -89 -98 -151 -189 -243
-62 -64 -79 -77 -91 -67 -11 9 -21 5 -48 -23 -120 -120 -372 -229 -561 -244
l-79 -6 6 168 c4 93 7 197 7 232 0 49 3 63 15 63 12 0 15 -13 15 -55 0 -65 8
-71 78 -59 l47 9 -52 3 -53 3 0 48 c0 41 3 50 21 54 20 5 21 10 15 69 -3 35
-9 135 -12 223 -3 88 -7 161 -9 163 -1 1 -15 -2 -30 -8 -35 -13 -94 2 -135 36
-23 20 -30 22 -30 10 0 -28 76 -69 130 -70 l48 -1 7 -182 c4 -100 4 -186 0
-192 -3 -6 -17 -11 -31 -11 -23 0 -24 2 -24 71 0 52 -3 70 -12 66 -7 -2 -12
-12 -10 -22 3 -15 -4 -17 -65 -14 l-68 4 -10 -32 c-5 -18 -13 -33 -18 -33 -5
0 -40 16 -78 36 -112 59 -209 178 -253 307 -7 22 -56 24 -56 1 0 -9 18 -54 40
-101 84 -181 251 -296 473 -328 l37 -6 0 -104 0 -105 -33 0 c-59 0 -88 -58
-47 -95 12 -11 29 -16 45 -13 25 5 25 5 25 -69 l0 -74 -67 7 c-38 4 -102 16
-143 27 -90 24 -159 33 -145 19 18 -17 199 -62 278 -69 l78 -6 -3 -46 c-3 -44
-4 -46 -37 -49 -45 -5 -151 14 -229 39 -35 12 -66 18 -69 15 -10 -10 68 -38
162 -57 160 -33 195 -23 195 55 l0 43 78 7 c181 15 389 95 535 206 45 34 74
49 86 45 13 -4 42 20 112 92 206 213 301 423 316 696 5 101 4 117 -9 117 -12
0 -17 -20 -22 -97z m-1106 -494 c0 -36 -2 -39 -22 -35 -13 3 -40 8 -60 11 -35
5 -38 9 -38 38 l0 32 60 -3 60 -4 0 -39z"/>
<path d="M4077 2669 c-26 -15 -46 -68 -40 -102 10 -54 83 -84 135 -56 11 6 26
26 34 45 26 62 -16 124 -83 124 -15 0 -36 -5 -46 -11z m88 -34 c29 -28 31 -51
9 -83 -18 -26 -75 -30 -94 -6 -21 25 -16 75 9 96 31 24 47 23 76 -7z"/>
<path d="M4094 2605 c-8 -20 13 -45 37 -45 19 0 35 33 24 50 -10 16 -55 12
-61 -5z"/>
<path d="M4447 2520 c-5 -63 -10 -123 -13 -132 -3 -10 -1 -18 5 -18 16 0 22
56 19 165 l-3 100 -8 -115z"/>
<path d="M3713 2609 c-17 -17 -4 -39 24 -39 20 0 24 4 21 22 -3 26 -28 34 -45
17z"/>
<path d="M2160 2585 c0 -9 5 -15 11 -13 6 2 11 8 11 13 0 5 -5 11 -11 13 -6 2
-11 -4 -11 -13z"/>
<path d="M2661 2489 c-18 -21 -30 -39 -26 -39 16 0 75 52 75 66 0 22 -12 16
-49 -27z"/>
<path d="M4497 2524 c-14 -15 -6 -34 14 -34 14 0 19 5 17 17 -3 18 -20 27 -31
17z"/>
<path d="M3725 2510 c-3 -5 -1 -10 4 -10 6 0 11 5 11 10 0 6 -2 10 -4 10 -3 0
-8 -4 -11 -10z"/>
<path d="M774 2433 c8 -83 53 -269 73 -303 l14 -25 -5 25 c-2 14 -16 69 -30
123 -14 54 -28 127 -32 162 l-7 65 262 0 c167 0 261 4 261 10 0 6 -97 10 -271
10 l-271 0 6 -67z"/>
<path d="M3710 2440 c0 -5 5 -10 10 -10 6 0 10 5 10 10 0 6 -4 10 -10 10 -5 0
-10 -4 -10 -10z"/>
<path d="M830 2430 c0 -6 87 -10 241 -10 157 0 238 3 234 10 -4 6 -95 10 -241
10 -149 0 -234 -4 -234 -10z"/>
<path d="M1552 2365 c21 -134 109 -314 220 -451 51 -64 184 -181 194 -171 3 3
-16 25 -43 50 -36 35 -42 45 -25 40 30 -7 28 7 -5 34 l-28 22 98 98 c53 54 97
103 97 108 0 5 -49 -40 -110 -100 -89 -89 -107 -112 -99 -124 6 -9 -12 9 -40
39 -109 116 -197 276 -234 427 -23 94 -38 111 -25 28z"/>
<path d="M3695 2380 c3 -5 8 -10 11 -10 2 0 4 5 4 10 0 6 -5 10 -11 10 -5 0
-7 -4 -4 -10z"/>
<path d="M3067 2369 c-23 -13 -11 -32 15 -23 12 4 24 1 29 -7 4 -7 11 -10 16
-6 10 10 -10 41 -28 44 -8 2 -22 -2 -32 -8z"/>
<path d="M3690 2329 c0 -5 5 -7 10 -4 6 3 10 8 10 11 0 2 -4 4 -10 4 -5 0 -10
-5 -10 -11z"/>
<path d="M4020 2300 c-52 -3 -79 -8 -60 -9 19 -2 42 -4 50 -5 8 -2 43 -3 77
-4 l61 -2 -5 -42 c-16 -142 -87 -361 -168 -516 -165 -318 -616 -605 -1105
-704 -96 -19 -146 -23 -305 -23 -173 0 -201 3 -310 29 -152 36 -306 90 -456
162 -135 65 -126 66 -190 -27 -21 -32 -43 -60 -48 -63 -5 -3 -51 22 -102 57
-129 86 -127 84 -110 63 15 -18 150 -115 190 -136 16 -8 26 -9 34 -1 7 7 22 0
48 -22 126 -108 466 -235 744 -278 118 -18 342 -16 455 5 173 32 168 32 181 2
8 -18 9 -30 3 -36 -24 -24 -212 -52 -381 -57 -323 -10 -608 54 -913 207 -58
29 -117 61 -132 71 -14 11 -33 17 -40 14 -28 -11 -193 120 -354 280 -132 131
-175 182 -242 283 -44 67 -82 128 -85 135 -2 6 -8 9 -13 4 -27 -26 146 -259
325 -438 138 -137 315 -280 355 -285 11 -1 95 -40 186 -87 413 -211 827 -269
1233 -175 53 12 91 26 94 35 6 15 -23 87 -41 102 -7 6 -43 3 -96 -9 -144 -32
-305 -44 -436 -31 -306 30 -621 126 -800 242 -41 27 -74 51 -74 54 0 12 81
125 89 125 4 0 59 -24 122 -54 149 -71 324 -130 479 -163 171 -37 409 -39 577
-5 357 71 654 212 892 423 168 148 262 291 336 512 36 108 75 271 75 318 0 15
7 30 16 33 9 3 68 6 131 6 l116 0 -7 -52 c-9 -67 -44 -212 -63 -260 -11 -27
-22 -38 -43 -43 -25 -5 -31 -16 -60 -98 -124 -359 -413 -657 -891 -920 -23
-13 -29 -21 -21 -29 8 -8 35 3 99 37 274 147 528 367 684 592 51 74 139 266
160 348 10 39 16 47 41 52 21 4 33 15 43 39 21 50 63 224 71 293 l7 61 -164
-2 c-90 -1 -207 -5 -259 -8z"/>
<path d="M1476 2228 c24 -78 119 -239 198 -335 78 -96 85 -75 7 25 -79 100
-139 198 -171 277 -21 53 -49 79 -34 33z"/>
<path d="M540 2230 c0 -29 61 -242 90 -315 53 -132 150 -315 150 -282 0 2 -27
58 -59 123 -62 124 -129 307 -151 409 -13 58 -30 95 -30 65z"/>
<path d="M4475 2218 c-26 -121 -49 -210 -79 -303 -19 -60 -33 -111 -31 -113
13 -13 104 283 120 391 7 47 0 67 -10 25z"/>
<path d="M3705 2155 c-30 -29 -32 -64 -5 -98 40 -50 108 -40 131 20 29 77 -68
137 -126 78z m89 -8 c21 -16 24 -60 6 -82 -16 -20 -64 -19 -84 1 -49 49 22
122 78 81z"/>
<path d="M3995 1963 c-60 -138 -229 -358 -348 -453 -31 -25 -56 -48 -57 -52
-1 -23 33 3 133 105 126 126 220 253 278 374 41 87 43 93 31 93 -4 0 -21 -30
-37 -67z"/>
<path d="M4309 1843 c-6 -21 -27 -71 -46 -112 -37 -81 -36 -81 -24 -81 10 0
68 125 87 186 16 53 1 59 -17 7z"/>
<path d="M4317 1715 c-9 -19 -15 -35 -12 -35 7 0 37 61 33 66 -3 2 -12 -12
-21 -31z"/>
<path d="M1860 1706 c0 -18 17 -29 30 -21 8 5 7 11 -1 21 -15 18 -29 18 -29 0z"/>
<path d="M4340 1644 c-54 -96 -142 -223 -223 -319 -83 -99 -94 -132 -15 -45
112 123 285 384 275 413 -2 6 -18 -16 -37 -49z"/>
<path d="M2000 1671 c0 -4 20 -19 45 -32 25 -13 45 -28 45 -32 0 -16 -21 -47
-32 -47 -5 0 -42 21 -80 46 -70 47 -108 53 -53 8 28 -22 137 -84 148 -84 3 0
17 20 31 45 l25 45 -59 30 c-65 33 -70 34 -70 21z"/>
<path d="M4190 1565 c-81 -141 -275 -363 -404 -463 -33 -25 -54 -48 -47 -50
18 -6 141 100 245 210 129 136 270 338 247 352 -5 4 -24 -19 -41 -49z"/>
<path d="M2845 1473 c-44 -13 -115 -27 -157 -30 -80 -6 -108 -23 -39 -23 72 0
301 54 301 71 0 12 -13 10 -105 -18z"/>
<path d="M3470 1394 c-68 -49 -315 -165 -435 -203 -226 -74 -470 -102 -665
-78 -54 7 -63 6 -52 -5 10 -10 61 -13 215 -13 176 0 216 3 307 23 220 50 433
136 598 241 45 29 82 55 82 57 0 9 -17 2 -50 -22z"/>
<path d="M2127 1399 c-27 -16 -39 -56 -26 -82 24 -45 67 -50 98 -11 26 32 26
46 4 72 -23 26 -53 34 -76 21z m56 -43 c7 -19 -18 -40 -38 -32 -15 6 -20 28
-8 39 12 12 41 7 46 -7z"/>
<path d="M2902 1398 c-17 -17 -15 -53 3 -68 12 -10 21 -10 40 -2 40 19 29 82
-15 82 -9 0 -21 -5 -28 -12z m48 -29 c0 -12 -29 -24 -37 -16 -3 4 -3 13 0 21
6 16 37 11 37 -5z"/>
<path d="M3262 869 c2 -6 8 -10 13 -10 5 0 11 4 13 10 2 6 -4 11 -13 11 -9 0
-15 -5 -13 -11z"/>
<path d="M3206 853 c-11 -11 -6 -23 9 -23 8 0 15 4 15 9 0 13 -16 22 -24 14z"/>
<path d="M3142 819 c2 -6 8 -10 13 -10 5 0 11 4 13 10 2 6 -4 11 -13 11 -9 0
-15 -5 -13 -11z"/>
<path d="M3085 801 c-7 -12 12 -24 25 -16 11 7 4 25 -10 25 -5 0 -11 -4 -15
-9z"/>
</g>
</svg>